<?xml version="1.0" encoding="utf-8"?>
<!-- Generator: Adobe Illustrator 18.0.0, SVG Export Plug-In . SVG Version: 6.00 Build 0)  -->
<!DOCTYPE svg PUBLIC "-//W3C//DTD SVG 1.1//EN" "http://www.w3.org/Graphics/SVG/1.1/DTD/svg11.dtd">
<svg version="1.1" id="Layer_1" xmlns="http://www.w3.org/2000/svg" xmlns:xlink="http://www.w3.org/1999/xlink" x="0px" y="0px"
	 viewBox="0 0 144 144" enable-background="new 0 0 144 144" xml:space="preserve">
<path fill="none" stroke="#58595B" stroke-width="7" stroke-miterlimit="10" d="M76,96.5c0,0,0-24.5,0-24.6c0-8.1-8.4-12.6-15.5-9.6
	c-4.4,1.9-4.6,5.5-4.6,9.6c0,5.5-0.1,11-0.1,16.6c0,7.1-1.4,15.2,2.5,21.6c4.9,8.1,14.2,12.8,23.5,10.5c5.6-1.4,10.2-5.3,12.8-10.4
	c3-5.9,1.8-11.5,1.8-17.8c0-11.9,0-23.7,0-35.6c0-7.8,1.2-17-2.7-24.3c-3.3-6.3-9.4-9.8-16.5-9.8c-6.7,0-14.1,1.9-17.7,8.1
	c-3.8,6.4-3.7,15-3.7,22.2"/>
</svg>
