<?xml version="1.0" ?><!DOCTYPE svg  PUBLIC '-//W3C//DTD SVG 1.1//EN'  'http://www.w3.org/Graphics/SVG/1.1/DTD/svg11.dtd'><svg enable-background="new 0 0 256 256" height="256px" id="Layer_1" version="1.1" viewBox="0 0 256 256" width="256px" xml:space="preserve" xmlns="http://www.w3.org/2000/svg" xmlns:xlink="http://www.w3.org/1999/xlink"><g><g><path clip-rule="evenodd" d="M30.839,121.572l54.773,17.405l8.385-2.385l13.51,8.639     l-15.986,4.547l-0.361,91.342l70.338-29.06v-72.111l12-3.005v78.711h0.045c-0.002,3.004-1.4,4.789-3.715,5.74l-82.391,34.129     c-1.465,0.602-3.16,0.674-4.721-0.02L7.269,221.704c-2.344-0.819-3.771-3.023-3.771-5.646v-95.531H2.999     c-0.002-2.003,1.73-4.946,4.459-5.629l51.039-12.748v2.019c0,3.487,1.096,6.817,2.891,9.649L30.839,121.572L30.839,121.572z      M79.786,149.605l-64.289-20.507v83.085l64.068,28.682L79.786,149.605L79.786,149.605z M222.497,95.342l11.061-1.367     l-11.061-10.325V71.059l1-0.093v0.009c2-0.127,3.32,0.397,4.6,1.587l22.422,21.143c1.35,1.102,1.979,2.777,1.979,4.654v92.263     h0.502c0.004,3.005-2.273,5.778-5.324,6.149l-62.178,7.869v-12.1l55-6.85v-80.537l-18,2.291V95.342L222.497,95.342z      M174.265,84.833c0.229-2.923-8.705-2.809-12.953-3.5c-6.316-1.164-8.516-5.919-3.18-9.803     c4.666-3.397,13.256-6.688,13.055-11.459c-0.143-3.386-15.26-2.9-21.385-1.943c0.188,6.117,0.414,13.553,0.629,19.668     c0.32,8.188,0.551,16.368,0.893,24.551C155.636,99.737,174.036,87.743,174.265,84.833L174.265,84.833z M176.813,71.828     c2.881-1.901,5.428-3.897,7.486-6.864c4.914-7.741-0.086-15.356-8.021-18.088c-2.799-0.908-5.305-1.336-8.121-1.673     c-2.633-0.264-8.773-0.862-16.77-0.44c-6.182,0.327-13.586,1.158-13.758,3.625c0.053,2.732,0.199,5.582,0.365,8.304     c0.441,7.281,0.945,14.552,1.504,21.825c0.471,6.352,0.943,12.773,1.645,19.102c1.111,8.945,0.988,17.67,11.742,14.314     c5.523-1.727,28.066-13.74,30.838-18.807c7.24-8.335,4.025-17.131-5.904-21.02C177.464,71.978,177.114,71.857,176.813,71.828z" fill="#68BCAC" fill-rule="evenodd"/><path clip-rule="evenodd" d="M153.894,12.121l-55.695,8.167l22.402,9.875l58.814-9.55     L153.894,12.121L153.894,12.121z M82.497,26.582l31,13.745v80.523l-31-19.941V26.582L82.497,26.582z M125.497,124.109V41.44     l73-11.768v76.311L125.497,124.109L125.497,124.109z M210.413,110.663c0.002,2.69-1.818,5.139-4.549,5.82l-84.152,21.051     c-2.08,0.584-3.74,0.24-5.484-0.99l-42.275-27.035c-1.934-0.999-3.256-3.016-3.254-5.341l0.006-86.792     c-0.004-2.971,2.166-5.495,5.16-5.942l77.662-11.37c0.895-0.131,1.83-0.062,2.746,0.24l49.482,16.465     c2.672,0.609,4.666,3.002,4.666,5.857L210.413,110.663L210.413,110.663z M65.343,194.491c2.646,1.782,4.973,4.019,4.213,6.373     c-0.469,1.122-1.395,1.712-2.562,1.951c1.088,5.598,4.334,22.51-0.443,23.583c-4.666,0.36-8.768-19.979-9.549-22.829     l-0.816-3.033c-0.172-0.063-0.33-0.12-0.473-0.17c-6.91-2.656-13.6-5.861-20.443-8.768c-0.447,1.117-0.898,2.234-1.354,3.349     c-1.709,4.148-4.33,14.542-9.447,13.802c-5.68-1.132-0.926-13.617,0.033-17.066c4.139-13.604,10.504-31.854,16.51-44.717     c0.375-0.773,11.971-0.983,12.828,1.864C58.138,163.55,62.175,179.274,65.343,194.491L65.343,194.491z M46.151,164.42     c-2.283,5.394-4.443,10.853-6.588,16.31c4.326,2.006,8.771,4.279,13.037,6.57C50.511,179.653,48.386,172.034,46.151,164.42     L46.151,164.42z M108.876,193.583c-2.648,1.68-4.975,3.828-4.215,6.211c0.469,1.141,1.395,1.766,2.562,2.05     c-1.088,5.556-4.334,22.345,0.443,23.599c4.666,0.537,8.768-19.645,9.549-22.465l0.816-3.003c0.172-0.057,0.33-0.108,0.473-0.152     c6.91-2.394,13.602-5.345,20.443-7.99c0.447,1.134,0.898,2.269,1.354,3.401c1.709,4.213,4.33,14.705,9.447,14.16     c5.682-0.916,0.926-13.584-0.033-17.066c-4.139-13.764-10.502-32.256-16.51-45.348c-0.375-0.787-11.971-1.438-12.828,1.377     C116.079,162.915,112.04,178.485,108.876,193.583L108.876,193.583z M128.065,164.239c2.283,5.48,4.443,11.021,6.588,16.561     c-4.326,1.841-8.771,3.944-13.037,6.074C123.706,179.308,125.831,171.77,128.065,164.239z" fill="#68BCAC" fill-rule="evenodd"/></g></g></svg>